<?xml version="1.0" standalone="no"?>
<!DOCTYPE svg PUBLIC "-//W3C//DTD SVG 20010904//EN"
 "http://www.w3.org/TR/2001/REC-SVG-20010904/DTD/svg10.dtd">
<svg version="1.0" xmlns="http://www.w3.org/2000/svg"
 width="700.000000pt" height="700.000000pt" viewBox="0 0 700.000000 700.000000"
 preserveAspectRatio="xMidYMid meet">
<metadata>
Created by potrace 1.11, written by Peter Selinger 2001-2013
</metadata>
<g transform="translate(0.000000,700.000000) scale(0.100000,-0.100000)"
fill="#000000" stroke="none">
<path d="M3295 6419 c-668 -47 -1279 -311 -1775 -763 -854 -781 -1165 -2011
-785 -3105 147 -423 362 -768 678 -1090 247 -250 493 -429 800 -579 905 -444
1976 -389 2829 144 l37 23 -446 693 c-245 381 -601 933 -789 1227 l-344 534 0
1463 0 1464 -47 -1 c-27 -1 -97 -5 -158 -10z"/>
</g>
</svg>
